<svg xmlns="http://www.w3.org/2000/svg" viewBox="0 0 64 64" fill="none">
  <rect width="64" height="64" rx="14" fill="#2563EB"/>
  <path d="M16 20h8c3.3 0 6 2.7 6 6s-2.7 6-6 6h-8v-12zm4 4v4h4c1.1 0 2-.9 2-2s-.9-2-2-2h-4z" fill="white"/>
  <path d="M16 34h8c3.3 0 6 2.7 6 6s-2.7 6-6 6h-8v-12zm4 4v4h4c1.1 0 2-.9 2-2s-.9-2-2-2h-4z" fill="white"/>
  <path d="M34 20h12v4h-8v4h6v4h-6v4h8v4h-12v-20z" fill="white"/>
  <circle cx="44" cy="44" r="6" fill="white" fill-opacity="0.25"/>
  <path d="M42 42l4 4" stroke="white" stroke-width="2" stroke-linecap="round"/>
</svg>
